<?xml version="1.0" encoding="UTF-8" standalone="no"?> <svg width="64" height="64" viewBox="0 0 64 64" fill="none" xmlns="http://www.w3.org/2000/svg">
<path d="M17.1899 26.06L13.9999 17.77C13.9551 17.6762 13.8979 17.5887 13.8299 17.51C13.829 17.49 13.829 17.47 13.8299 17.45C13.7618 17.3783 13.6802 17.3205 13.5899 17.28L13.5099 17.23C13.4467 17.2255 13.3832 17.2255 13.3199 17.23C13.2567 17.2263 13.1932 17.2263 13.1299 17.23H9.60993C9.54335 17.2253 9.47652 17.2253 9.40993 17.23C9.35671 17.2253 9.30316 17.2253 9.24993 17.23C9.17623 17.2614 9.10855 17.3054 9.04994 17.36C9.00429 17.3865 8.96083 17.4166 8.91994 17.45C8.91994 17.45 8.86994 17.53 8.83994 17.57C8.78466 17.6265 8.73754 17.6905 8.69993 17.76C8.69993 17.76 8.69993 17.83 8.69993 17.86C8.66474 17.9529 8.64449 18.0508 8.63994 18.15V18.15C8.63636 18.1933 8.63636 18.2367 8.63994 18.28C8.63109 18.3564 8.63109 18.4336 8.63994 18.51L12.2499 27.96C12.2499 28.01 12.3099 28.05 12.3299 28.1C12.3499 28.15 12.3999 28.21 12.4399 28.25C12.4716 28.2884 12.5087 28.3221 12.5499 28.35C12.5999 28.3987 12.6573 28.4392 12.7199 28.47L12.8399 28.53C12.9483 28.573 13.0634 28.5967 13.1799 28.6C13.3029 28.5961 13.4245 28.5724 13.5399 28.53V28.53L16.5399 27.37C16.7232 27.2994 16.8816 27.1764 16.9954 27.0164C17.1093 26.8563 17.1734 26.6663 17.1799 26.47C17.2097 26.3353 17.2131 26.196 17.1899 26.06V26.06Z" fill="#999999"/>
<path d="M59.9999 7.40997C59.7347 7.40997 59.4804 7.51533 59.2928 7.70287C59.1053 7.8904 58.9999 8.14476 58.9999 8.40997V14.68C59.0016 15.9011 58.7023 17.1039 58.1285 18.1818C57.5546 19.2597 56.7239 20.1796 55.7099 20.86L53.1399 22.58L53.7999 16.05L55.5199 14.51C55.6191 14.4224 55.6999 14.316 55.7576 14.197C55.8154 14.078 55.8489 13.9487 55.8564 13.8167C55.8638 13.6846 55.845 13.5524 55.801 13.4276C55.7569 13.3029 55.6886 13.1881 55.5999 13.09C55.4247 12.8913 55.1779 12.7702 54.9135 12.7533C54.6492 12.7365 54.3889 12.8252 54.1899 13L52.1899 14.76L44.6699 21.53C44.467 21.7063 44.3425 21.9561 44.3238 22.2243C44.305 22.4924 44.3936 22.7571 44.5699 22.96C44.7463 23.1629 44.996 23.2874 45.2642 23.3061C45.5324 23.3249 45.797 23.2363 45.9999 23.06L47.5299 21.67L46.0499 36.13C46.045 36.1799 46.045 36.2301 46.0499 36.28C46.0401 36.3496 46.0401 36.4203 46.0499 36.49C46.0725 36.5485 46.0992 36.6053 46.1299 36.66C46.152 36.7205 46.1822 36.7777 46.2199 36.83C46.2554 36.8806 46.2993 36.9245 46.3499 36.96C46.3954 37.0053 46.4457 37.0456 46.4999 37.08C46.5597 37.1143 46.6235 37.1412 46.6899 37.16L46.8299 37.21L50.4299 37.86H50.6399C50.7706 37.8584 50.8997 37.8312 51.0199 37.78H51.0899C51.1779 37.7354 51.2587 37.6782 51.3299 37.61V37.61C51.4812 37.4504 51.579 37.2477 51.6099 37.03L52.8099 25.21L56.8099 22.57C58.1061 21.7037 59.1673 20.5295 59.8985 19.1526C60.6297 17.7757 61.0082 16.239 60.9999 14.68V8.40997C60.9999 8.14476 60.8946 7.8904 60.707 7.70287C60.5195 7.51533 60.2651 7.40997 59.9999 7.40997Z" fill="#999999"/>
<path d="M21.84 31.61C21.845 31.5434 21.845 31.4766 21.84 31.41C21.8448 31.3434 21.8448 31.2766 21.84 31.21C21.8387 31.1867 21.8387 31.1633 21.84 31.14L19.56 25.14C19.4658 24.8944 19.2786 24.6958 19.039 24.5873C18.7994 24.4787 18.5267 24.4689 18.28 24.56L10.6 27.49C10.4718 27.5343 10.354 27.6043 10.2537 27.6956C10.1534 27.787 10.0728 27.8977 10.0166 28.0212C9.96051 28.1447 9.93009 28.2783 9.92723 28.4139C9.92436 28.5495 9.94911 28.6843 9.99997 28.81L11.52 32.81C11.52 32.81 11.52 32.87 11.58 32.91L11.66 33.01L11.78 33.13L11.87 33.2L12.03 33.28H12.13H12.37C12.4729 33.2795 12.5748 33.2591 12.67 33.22C12.67 33.22 12.67 33.22 12.74 33.22C15.0006 32.1161 17.5555 31.7657 20.03 32.22L20.53 32.31C20.553 32.3152 20.5769 32.3152 20.6 32.31C20.6665 32.315 20.7334 32.315 20.8 32.31H21H21.07C21.1022 32.2935 21.1324 32.2734 21.16 32.25C21.2254 32.2231 21.2862 32.1859 21.34 32.14L21.47 32.01C21.5122 31.9607 21.5491 31.9071 21.58 31.85C21.6093 31.789 21.6327 31.7254 21.65 31.66C21.65 31.66 21.65 31.6 21.65 31.56C21.6716 31.5883 21.702 31.6085 21.7364 31.6176C21.7708 31.6266 21.8073 31.624 21.84 31.61V31.61Z" fill="#4D4D4D"/>
<path d="M18.8 13.6299L10.11 12.1699L7.79 10.7999C7.30837 10.5136 6.75943 10.36 6.19913 10.3549C5.63882 10.3497 5.08715 10.4932 4.60034 10.7706C4.11352 11.0481 3.70894 11.4496 3.42782 11.9343C3.1467 12.419 2.99908 12.9696 3 13.5299C3 15.0152 3.59 16.4395 4.64021 17.4897C5.69041 18.5399 7.11479 19.1299 8.6 19.1299H18.34C19.0331 19.1277 19.7002 18.8657 20.2096 18.3956C20.719 17.9255 21.0336 17.2816 21.0914 16.5908C21.1492 15.9001 20.9459 15.2128 20.5217 14.6647C20.0975 14.1165 19.4831 13.7473 18.8 13.6299V13.6299Z" fill="#4D4D4D"/>
<path d="M58.2 39.16C57.2421 38.1383 56.0874 37.321 54.8053 36.7573C53.5233 36.1936 52.1404 35.8952 50.74 35.88L20.53 30.42C18.6047 30.0266 16.6155 30.0728 14.7106 30.555C12.8057 31.0373 11.0341 31.9432 9.52792 33.2052C8.02173 34.4673 6.81975 36.0529 6.01153 37.844C5.20331 39.6352 4.80969 41.5856 4.85999 43.55C5.00533 47.071 6.51569 50.3971 9.07109 52.8237C11.6265 55.2503 15.0262 56.5868 18.55 56.55H50.33C52.9969 56.5928 55.581 55.6229 57.5611 53.8358C59.5411 52.0487 60.77 49.5773 61 46.92C61.0969 45.503 60.8981 44.0815 60.416 42.7455C59.934 41.4096 59.1793 40.1885 58.2 39.16Z" fill="#1689FC"/>
<path d="M34.2901 38.16H26.3701C26.1049 38.16 25.8505 38.2653 25.663 38.4529C25.4755 38.6404 25.3701 38.8948 25.3701 39.16C25.3773 39.3457 25.4362 39.5258 25.5401 39.68L25.3101 39.76C24.4172 38.0379 22.9241 36.7028 21.1133 36.0073C19.3025 35.3118 17.2996 35.3042 15.4835 35.9858C13.6675 36.6675 12.1642 37.9911 11.2582 39.7063C10.3522 41.4215 10.1063 43.4093 10.567 45.2935C11.0277 47.1778 12.1631 48.8279 13.7583 49.9315C15.3535 51.0352 17.298 51.5158 19.2237 51.2826C21.1494 51.0493 22.9228 50.1183 24.2084 48.6657C25.494 47.2132 26.2026 45.3398 26.2001 43.4C26.2 42.8077 26.1329 42.2172 26.0001 41.64L30.0801 40.16H34.3001C34.5653 40.16 34.8197 40.0546 35.0072 39.8671C35.1947 39.6796 35.3001 39.4252 35.3001 39.16C35.3001 38.8948 35.1947 38.6404 35.0072 38.4529C34.8197 38.2653 34.5653 38.16 34.3001 38.16H34.2901ZM24.2001 43.4C24.2064 44.8579 23.6816 46.2683 22.7239 47.3675C21.7661 48.4668 20.4409 49.1797 18.9958 49.373C17.5507 49.5663 16.0846 49.2269 14.8716 48.418C13.6586 47.6092 12.7815 46.3864 12.4044 44.9781C12.0272 43.5697 12.1758 42.0722 12.8223 40.7655C13.4688 39.4587 14.5689 38.432 15.9172 37.8772C17.2655 37.3225 18.7697 37.2777 20.1486 37.7512C21.5276 38.2246 22.6869 39.184 23.4101 40.45L17.9201 42.45C17.6709 42.5402 17.4677 42.7258 17.3551 42.9658C17.2426 43.2058 17.23 43.4807 17.3201 43.73C17.39 43.9233 17.5177 44.0903 17.6859 44.2084C17.8541 44.3265 18.0546 44.3899 18.2601 44.39C18.3771 44.3909 18.493 44.367 18.6001 44.32L24.1001 42.32C24.1646 42.6764 24.1981 43.0378 24.2001 43.4V43.4Z" fill="#4D4D4D"/>
<path d="M34.2901 38.16H26.3701C26.1049 38.16 25.8505 38.2653 25.663 38.4529C25.4755 38.6404 25.3701 38.8948 25.3701 39.16C25.3773 39.3457 25.4362 39.5258 25.5401 39.68L25.3101 39.76C24.4172 38.0379 22.9241 36.7028 21.1133 36.0073C19.3025 35.3118 17.2996 35.3042 15.4835 35.9858C13.6675 36.6675 12.1642 37.9911 11.2582 39.7063C10.3522 41.4215 10.1063 43.4093 10.567 45.2935C11.0277 47.1778 12.1631 48.8279 13.7583 49.9315C15.3535 51.0352 17.298 51.5158 19.2237 51.2826C21.1494 51.0493 22.9228 50.1183 24.2084 48.6657C25.494 47.2132 26.2026 45.3398 26.2001 43.4C26.2 42.8077 26.1329 42.2172 26.0001 41.64L30.0801 40.16H34.3001C34.5653 40.16 34.8197 40.0546 35.0072 39.8671C35.1947 39.6796 35.3001 39.4252 35.3001 39.16C35.3001 38.8948 35.1947 38.6404 35.0072 38.4529C34.8197 38.2653 34.5653 38.16 34.3001 38.16H34.2901ZM24.2001 43.4C24.2064 44.8579 23.6816 46.2683 22.7239 47.3675C21.7661 48.4668 20.4409 49.1797 18.9958 49.373C17.5507 49.5663 16.0846 49.2269 14.8716 48.418C13.6586 47.6092 12.7815 46.3864 12.4044 44.9781C12.0272 43.5697 12.1758 42.0722 12.8223 40.7655C13.4688 39.4587 14.5689 38.432 15.9172 37.8772C17.2655 37.3225 18.7697 37.2777 20.1486 37.7512C21.5276 38.2246 22.6869 39.184 23.4101 40.45L17.9201 42.45C17.6709 42.5402 17.4677 42.7258 17.3551 42.9658C17.2426 43.2058 17.23 43.4807 17.3201 43.73C17.39 43.9233 17.5177 44.0903 17.6859 44.2084C17.8541 44.3265 18.0546 44.3899 18.2601 44.39C18.3771 44.3909 18.493 44.367 18.6001 44.32L24.1001 42.32C24.1646 42.6764 24.1981 43.0378 24.2001 43.4V43.4Z" fill="black"/>
<path d="M56.82 22.52C58.1073 21.6572 59.1621 20.4905 59.8912 19.1231C60.6202 17.7557 61.0011 16.2296 61 14.68V8.40997C61 8.14476 60.8946 7.8904 60.7071 7.70287C60.5196 7.51533 60.2652 7.40997 60 7.40997C59.7348 7.40997 59.4804 7.51533 59.2929 7.70287C59.1054 7.8904 59 8.14476 59 8.40997V14.68C59.0017 15.9011 58.7024 17.1039 58.1285 18.1818C57.5547 19.2597 56.724 20.1796 55.71 20.86L53.12 22.59L53.81 16.05L55.52 14.51C55.6192 14.4224 55.6999 14.316 55.7577 14.197C55.8155 14.078 55.849 13.9487 55.8565 13.8167C55.8639 13.6846 55.8451 13.5524 55.801 13.4276C55.757 13.3029 55.6887 13.1881 55.6 13.09C55.4248 12.8913 55.178 12.7702 54.9136 12.7533C54.6493 12.7365 54.389 12.8252 54.19 13L44.69 21.55C44.499 21.7262 44.3842 21.9699 44.3698 22.2294C44.3554 22.4889 44.4426 22.7438 44.6129 22.9401C44.7832 23.1364 45.0233 23.2587 45.2822 23.2811C45.5411 23.3034 45.7985 23.2241 46 23.06L47.53 21.67L46.13 35.05L21.59 30.61L19.51 25.18C19.4158 24.9344 19.2286 24.7358 18.9891 24.6272C18.7495 24.5187 18.4768 24.5089 18.23 24.6L16.84 25.13L14.55 19.13H18.34C19.0331 19.1277 19.7002 18.8657 20.2096 18.3956C20.719 17.9256 21.0336 17.2816 21.0914 16.5909C21.1492 15.9001 20.9459 15.2128 20.5217 14.6647C20.0975 14.1165 19.4831 13.7473 18.8 13.63L10.11 12.17L7.79 10.8C7.30837 10.5136 6.75943 10.36 6.19913 10.3549C5.63882 10.3498 5.08715 10.4932 4.60034 10.7707C4.11352 11.0481 3.70894 11.4497 3.42782 11.9344C3.1467 12.4191 2.99908 12.9696 3 13.53C3 15.0152 3.59 16.4396 4.64021 17.4898C5.69041 18.54 7.11479 19.13 8.6 19.13H8.92L11.92 27.01L10.55 27.53C10.4262 27.5769 10.313 27.6479 10.2169 27.7388C10.1207 27.8298 10.0436 27.939 9.99 28.06C9.88999 28.3034 9.88999 28.5765 9.99 28.82L11.22 32.05C10.1635 32.6542 9.20296 33.4126 8.37 34.3C6.05137 36.8156 4.79388 40.1295 4.86 43.55C5.00535 47.071 6.5157 50.3971 9.0711 52.8237C11.6265 55.2503 15.0262 56.5868 18.55 56.55H50.33C52.997 56.5928 55.581 55.6229 57.5611 53.8358C59.5412 52.0487 60.7701 49.5773 61 46.92C61.0996 45.5045 60.9039 44.0837 60.4253 42.7479C59.9467 41.412 59.1958 40.1902 58.22 39.16C56.5187 37.3463 54.2228 36.2036 51.75 35.94L52.87 25.17L56.82 22.52ZM49.82 19.67L51.63 18.05L49.74 35.7L48.13 35.41L49.82 19.67ZM5 13.53C4.99974 13.3257 5.05437 13.1251 5.15816 12.9492C5.26195 12.7733 5.4111 12.6285 5.59 12.53C5.77007 12.4278 5.97301 12.3728 6.18 12.37C6.3889 12.3689 6.59369 12.4279 6.77 12.54L9.25 14C9.35565 14.0591 9.47065 14.0997 9.59 14.12L18.47 15.61C18.6484 15.6425 18.8099 15.7362 18.9267 15.8749C19.0435 16.0136 19.1083 16.1887 19.11 16.37C19.1113 16.4715 19.0924 16.5722 19.0541 16.6662C19.0159 16.7603 18.9592 16.8457 18.8875 16.9174C18.8157 16.9892 18.7303 17.0459 18.6363 17.0841C18.5422 17.1223 18.4415 17.1413 18.34 17.14H8.6C7.64431 17.1373 6.72866 16.7558 6.05381 16.0791C5.37897 15.4024 5 14.4857 5 13.53V13.53ZM11.06 19.13H12.41L15 25.84L13.82 26.29L11.06 19.13ZM12.2 29L18 26.83L19.32 30.28C17.1752 30.0801 15.0134 30.3884 13.01 31.18L12.2 29ZM59 46.79C58.8153 48.9443 57.8193 50.9481 56.2135 52.3961C54.6077 53.8442 52.5119 54.6283 50.35 54.59H18.55C15.5431 54.6264 12.6403 53.4896 10.4578 51.4209C8.27519 49.3523 6.98465 46.5145 6.86 43.51C6.81105 40.6015 7.8856 37.7862 9.86 35.65C10.9106 34.5513 12.1745 33.6786 13.5741 33.0854C14.9738 32.4921 16.4798 32.1909 18 32.2C18.7176 32.1987 19.4339 32.2623 20.14 32.39C20.14 32.39 50.54 37.88 50.6 37.88C51.7413 37.8916 52.8689 38.1312 53.9164 38.5845C54.9639 39.0379 55.9103 39.6959 56.7 40.52C57.4972 41.3485 58.1134 42.3337 58.5093 43.4131C58.9053 44.4925 59.0724 45.6425 59 46.79V46.79Z" fill="black"/>
</svg>
