<?xml version="1.0" encoding="UTF-8" standalone="no"?> <svg width="64" height="64" viewBox="0 0 64 64" fill="none" xmlns="http://www.w3.org/2000/svg">
<path d="M60.6701 45.48C60.4535 44.9294 60.1293 44.4275 59.7165 44.0037C59.3037 43.5799 58.8105 43.2427 58.2657 43.0118C57.721 42.7808 57.1357 42.6609 56.5441 42.6588C55.9524 42.6568 55.3663 42.7728 54.8201 43L42.0901 47.51C42.1336 47.2556 42.157 46.9981 42.1601 46.74C42.1601 45.6049 41.7091 44.5162 40.9065 43.7136C40.1038 42.9109 39.0152 42.46 37.8801 42.46H34.5801C31.6453 42.4574 28.7554 41.7401 26.1601 40.37C23.279 38.8464 20.0692 38.0499 16.8101 38.05H10.8101C10.5448 38.05 10.2905 38.1553 10.103 38.3429C9.91541 38.5304 9.81006 38.7848 9.81006 39.05V55.71C9.81006 55.9752 9.91541 56.2296 10.103 56.4171C10.2905 56.6046 10.5448 56.71 10.8101 56.71C12.9456 56.7091 15.0657 57.0709 17.0801 57.78L22.2201 59.6C24.8546 60.5267 27.6272 61.0001 30.4201 61H31.4201C34.4139 60.8645 37.3582 60.1869 40.1101 59L58.5401 51.13C59.5372 50.625 60.309 49.7648 60.7032 48.719C61.0975 47.6731 61.0857 46.5175 60.6701 45.48V45.48Z" fill="#FDD0AF"/>
<path d="M58.19 8.90002C57.312 8.00692 56.2644 7.29828 55.1087 6.81573C53.953 6.33318 52.7125 6.08644 51.46 6.09002V6.09002C50.2004 6.08759 48.9527 6.33465 47.789 6.81694C46.6253 7.29924 45.5687 8.00721 44.68 8.90002L41.82 11.76L39 8.90002C38.1164 7.99832 37.0626 7.28079 35.8999 6.78893C34.7371 6.29708 33.4883 6.04067 32.2258 6.03454C30.9633 6.0284 29.7121 6.27266 28.5446 6.75319C27.3771 7.23372 26.3164 7.94098 25.424 8.83405C24.5316 9.72713 23.8251 10.7883 23.3455 11.9561C22.8658 13.124 22.6225 14.3754 22.6295 15.6379C22.6366 16.9004 22.8939 18.149 23.3867 19.3114C23.8794 20.4738 24.5977 21.527 25.5 22.41L41.11 38.07C41.2027 38.1645 41.3131 38.2397 41.435 38.2912C41.5568 38.3427 41.6877 38.3695 41.82 38.37C41.9523 38.3695 42.0832 38.3427 42.2051 38.2912C42.327 38.2397 42.4374 38.1645 42.53 38.07L58.19 22.41C59.0811 21.5252 59.7882 20.4728 60.2708 19.3134C60.7534 18.1541 61.0018 16.9108 61.0018 15.655C61.0018 14.3993 60.7534 13.1559 60.2708 11.9966C59.7882 10.8373 59.0811 9.78488 58.19 8.90002V8.90002Z" fill="#ED184B"/>
<path d="M36 26.36H35.92C35.7602 26.3468 35.606 26.2954 35.4702 26.2102C35.3345 26.1249 35.2212 26.0082 35.14 25.87L30.77 18.51L24.27 23.83C24.0927 23.9769 23.8702 24.0581 23.64 24.06H19.12C18.8548 24.06 18.6004 23.9547 18.4129 23.7671C18.2254 23.5796 18.12 23.3252 18.12 23.06C18.12 22.7948 18.2254 22.5404 18.4129 22.3529C18.6004 22.1654 18.8548 22.06 19.12 22.06H23.28L30.4 16.22C30.5118 16.1297 30.6417 16.0645 30.7809 16.0289C30.9202 15.9934 31.0654 15.9882 31.2068 16.0138C31.3482 16.0395 31.4824 16.0952 31.6003 16.1774C31.7182 16.2596 31.817 16.3662 31.89 16.49L36.14 23.63L41.05 17.69C41.144 17.5771 41.2618 17.4863 41.3948 17.4241C41.5279 17.3619 41.6731 17.3298 41.82 17.33H50.06C50.3252 17.33 50.5796 17.4354 50.7671 17.6229C50.9546 17.8104 51.06 18.0648 51.06 18.33C51.06 18.5952 50.9546 18.8496 50.7671 19.0371C50.5796 19.2247 50.3252 19.33 50.06 19.33H42.29L36.77 26C36.676 26.1129 36.5582 26.2037 36.4251 26.2659C36.2921 26.3281 36.1469 26.3602 36 26.36Z" fill="white"/>
<path d="M8.59 33.5H6.22C4.44164 33.5 3 34.9416 3 36.72V56.78C3 58.5584 4.44164 60 6.22 60H8.59C10.3684 60 11.81 58.5584 11.81 56.78V36.72C11.81 34.9416 10.3684 33.5 8.59 33.5Z" fill="#4D4D4D"/>
<path d="M60.67 45.48C60.4534 44.9294 60.1293 44.4275 59.7164 44.0037C59.3036 43.5799 58.8104 43.2427 58.2657 43.0118C57.721 42.7809 57.1357 42.6609 56.544 42.6589C55.9524 42.6568 55.3663 42.7728 54.82 43L42.09 47.51C42.1336 47.2556 42.157 46.9981 42.16 46.74C42.16 45.6049 41.7091 44.5162 40.9064 43.7136C40.1038 42.9109 39.0151 42.46 37.88 42.46H34.58C31.6453 42.4574 28.7553 41.7401 26.16 40.37C23.2789 38.8464 20.0691 38.05 16.81 38.05H11.81V36.73C11.81 35.8734 11.4697 35.0518 10.864 34.446C10.2582 33.8403 9.43665 33.5 8.58 33.5H6.22C5.36508 33.5026 4.54609 33.8441 3.94251 34.4496C3.33893 35.055 3 35.8751 3 36.73V56.78C3.00264 57.6332 3.34273 58.4507 3.94603 59.054C4.54933 59.6573 5.36681 59.9974 6.22 60H8.58C9.00417 60 9.42419 59.9165 9.81607 59.7541C10.2079 59.5918 10.564 59.3539 10.864 59.054C11.1639 58.754 11.4018 58.398 11.5641 58.0061C11.7265 57.6142 11.81 57.1942 11.81 56.77V56.77C13.6051 56.8524 15.3795 57.1891 17.08 57.77L22.22 59.59C24.8546 60.5167 27.6272 60.9901 30.42 60.99H31.42C34.4138 60.8545 37.3582 60.1769 40.11 58.99L58.54 51.12C59.5348 50.6152 60.3048 49.7567 60.6989 48.7131C61.0931 47.6696 61.0827 46.5163 60.67 45.48V45.48ZM9.81 56.78C9.80736 57.1045 9.67661 57.4148 9.44623 57.6433C9.21584 57.8718 8.90449 58 8.58 58H6.22C5.89724 57.9974 5.58845 57.868 5.36022 57.6398C5.13199 57.4116 5.00261 57.1028 5 56.78V36.73C4.99999 36.4055 5.1282 36.0942 5.35672 35.8638C5.58523 35.6334 5.89552 35.5026 6.22 35.5H8.58C8.90622 35.5 9.21907 35.6296 9.44974 35.8603C9.68041 36.0909 9.81 36.4038 9.81 36.73V56.78ZM57.73 49.33L39.36 57.17C36.8278 58.2615 34.1155 58.8751 31.36 58.98C28.4717 59.1003 25.587 58.6693 22.86 57.71L17.74 55.9C15.8299 55.2299 13.8321 54.8425 11.81 54.75V40.05H16.81C19.7423 40.0465 22.6305 40.7643 25.22 42.14C28.1057 43.661 31.318 44.4572 34.58 44.46H37.88C38.1803 44.46 38.4776 44.5193 38.7548 44.6345C39.0321 44.7497 39.2839 44.9186 39.4958 45.1313C39.7076 45.3441 39.8753 45.5966 39.9893 45.8744C40.1033 46.1522 40.1613 46.4497 40.16 46.75C40.1617 47.0755 40.0919 47.3974 39.9554 47.6929C39.8188 47.9885 39.619 48.2503 39.37 48.46L37.69 49.05H26.78C26.5148 49.05 26.2604 49.1554 26.0729 49.3429C25.8854 49.5304 25.78 49.7848 25.78 50.05C25.78 50.3152 25.8854 50.5696 26.0729 50.7571C26.2604 50.9446 26.5148 51.05 26.78 51.05H37.88C38.02 51.05 55.55 44.89 55.55 44.89C55.852 44.7579 56.1775 44.6878 56.5071 44.6839C56.8367 44.6801 57.1638 44.7425 57.4688 44.8675C57.7738 44.9925 58.0506 45.1775 58.2827 45.4115C58.5148 45.6456 58.6976 45.9239 58.82 46.23C59.0501 46.7905 59.0663 47.416 58.8653 47.9876C58.6643 48.5591 58.2603 49.0369 57.73 49.33V49.33Z" fill="black"/>
<path d="M19.12 24.06H23.64C23.8702 24.0581 24.0927 23.9769 24.27 23.83L25.7 22.66L41.11 38.07C41.2026 38.1645 41.3131 38.2397 41.4349 38.2912C41.5568 38.3427 41.6877 38.3695 41.82 38.37C41.9523 38.3695 42.0832 38.3427 42.2051 38.2912C42.3269 38.2397 42.4374 38.1645 42.53 38.07L58.19 22.41C59.081 21.5252 59.7882 20.4728 60.2708 19.3134C60.7533 18.1541 61.0018 16.9108 61.0018 15.655C61.0018 14.3993 60.7533 13.1559 60.2708 11.9966C59.7882 10.8373 59.081 9.78487 58.19 8.90001C57.312 8.00691 56.2643 7.29827 55.1086 6.81572C53.9529 6.33317 52.7124 6.08643 51.46 6.09001V6.09001C50.2003 6.08758 48.9526 6.33464 47.789 6.81693C46.6253 7.29922 45.5686 8.0072 44.68 8.90001L41.82 11.76L39 8.90001C37.3276 7.13116 35.0428 6.06773 32.6126 5.92705C30.1823 5.78636 27.7901 6.57903 25.9247 8.14308C24.0594 9.70713 22.8617 11.9245 22.5764 14.342C22.2912 16.7595 22.9399 19.1948 24.39 21.15L23.28 22.06H19.12C18.8548 22.06 18.6004 22.1654 18.4129 22.3529C18.2254 22.5404 18.12 22.7948 18.12 23.06C18.12 23.3252 18.2254 23.5796 18.4129 23.7671C18.6004 23.9547 18.8548 24.06 19.12 24.06ZM24.64 15.63C24.6414 14.136 25.0861 12.676 25.9177 11.4349C26.7492 10.1937 27.9304 9.22714 29.3115 8.65754C30.6927 8.08795 32.2118 7.94093 33.6765 8.23508C35.1413 8.52924 36.4858 9.25135 37.54 10.31L41.11 13.88C41.203 13.9737 41.3136 14.0481 41.4354 14.0989C41.5573 14.1497 41.688 14.1758 41.82 14.1758C41.952 14.1758 42.0827 14.1497 42.2046 14.0989C42.3264 14.0481 42.437 13.9737 42.53 13.88L46.1 10.31C46.8007 9.60468 47.6344 9.0453 48.5527 8.66424C49.471 8.28318 50.4558 8.08801 51.45 8.09001V8.09001C52.4398 8.0881 53.42 8.28343 54.3334 8.6646C55.2468 9.04577 56.0752 9.60513 56.77 10.31C57.4739 11.0098 58.0325 11.8418 58.4136 12.7583C58.7948 13.6747 58.991 14.6575 58.991 15.65C58.991 16.6426 58.7948 17.6253 58.4136 18.5417C58.0325 19.4582 57.4739 20.2902 56.77 20.99L41.77 35.99L27.25 21.39L30.77 18.51L35.14 25.87C35.2216 26.008 35.3352 26.1243 35.4711 26.2092C35.6071 26.2941 35.7615 26.3451 35.9213 26.3579C36.0811 26.3706 36.2416 26.3447 36.3893 26.2825C36.537 26.2202 36.6676 26.1233 36.77 26L42.29 19.33H50.06C50.3252 19.33 50.5796 19.2247 50.7671 19.0371C50.9546 18.8496 51.06 18.5952 51.06 18.33C51.06 18.0648 50.9546 17.8104 50.7671 17.6229C50.5796 17.4354 50.3252 17.33 50.06 17.33H41.82C41.6731 17.3298 41.5279 17.3619 41.3948 17.4241C41.2618 17.4863 41.144 17.5771 41.05 17.69L36.14 23.63L31.89 16.49C31.817 16.3662 31.7182 16.2596 31.6003 16.1774C31.4824 16.0952 31.3482 16.0394 31.2068 16.0138C31.0654 15.9882 30.9202 15.9934 30.7809 16.0289C30.6417 16.0645 30.5118 16.1297 30.4 16.22L25.94 19.88C25.0872 18.6272 24.634 17.1455 24.64 15.63V15.63Z" fill="black"/>
</svg>
