<?xml version="1.0" encoding="UTF-8" standalone="no"?> <svg width="64" height="64" viewBox="0 0 64 64" fill="none" xmlns="http://www.w3.org/2000/svg">
<path d="M56.6001 42.72C56.036 41.6256 55.7444 40.4112 55.7501 39.18C55.5801 37.27 55.3901 35.11 53.5001 33.48L40.5001 18.21C40.5001 18.21 40.4301 18.16 40.4001 18.13C40.3615 18.0881 40.3178 18.0512 40.2701 18.02C40.2013 17.9799 40.1273 17.9496 40.0501 17.93C40.0501 17.93 40.0501 17.93 39.9701 17.93H39.7001C39.6439 17.9203 39.5864 17.9203 39.5301 17.93C39.467 17.9445 39.4064 17.9681 39.3501 18C39.2887 18.02 39.2312 18.0504 39.1801 18.09C39.1801 18.09 39.1801 18.09 39.1201 18.09C39.094 18.1141 39.0705 18.1409 39.0501 18.17C39.0008 18.2219 38.9572 18.2789 38.9201 18.34C38.8835 18.3915 38.8564 18.449 38.8401 18.51C38.8194 18.5447 38.8026 18.5816 38.7901 18.62C38.2427 21.0165 36.9084 23.1605 35.0001 24.71C34.9749 24.7283 34.9544 24.7523 34.9401 24.78H34.8801C34.8565 24.811 34.8364 24.8446 34.8201 24.88C34.7798 24.9377 34.7431 24.9978 34.7101 25.06C34.7057 25.1166 34.7057 25.1734 34.7101 25.23V25.43C34.7046 25.4865 34.7046 25.5435 34.7101 25.6C34.7009 25.6664 34.7009 25.7337 34.7101 25.8C34.7326 25.8585 34.7594 25.9153 34.7901 25.97C34.8064 26.0054 34.8265 26.039 34.8501 26.07C34.8501 26.07 34.8501 26.07 34.9101 26.12V26.2C35.4843 26.7062 35.9474 27.3259 36.2701 28.02C36.3007 28.0858 36.3411 28.1465 36.3901 28.2C36.7501 28.77 38.3401 33.54 37.6501 36.65C37.5387 37.3054 37.232 37.9119 36.7701 38.39C35.1482 37.9653 33.4455 37.9551 31.8187 38.3605C30.1918 38.7659 28.693 39.5738 27.4601 40.71C21.2701 37.56 13.0801 38.71 8.2601 43.57C6.61017 45.2144 5.67863 47.4453 5.66926 49.7747C5.65989 52.1041 6.57345 54.3424 8.2101 56C10.221 58.2712 12.8861 59.8638 15.839 60.5586C18.7918 61.2533 21.8874 61.0163 24.7001 59.88C27.1106 60.6212 29.6182 60.9987 32.1401 61C40.6501 61 49.5401 56.88 57.0101 49.25C57.4209 48.9136 57.7529 48.4913 57.9827 48.0127C58.2124 47.5341 58.3345 47.0109 58.3401 46.48C58.3215 45.7678 58.1575 45.0669 57.8583 44.4204C57.5591 43.7738 57.1309 43.1952 56.6001 42.72V42.72Z" fill="#FDD0AF"/>
<path d="M56.6001 42.72C56.036 41.6256 55.7444 40.4112 55.7501 39.18C55.5801 37.27 55.3901 35.11 53.5001 33.48L40.5001 18.21C40.5001 18.21 40.4301 18.16 40.4001 18.13C40.3615 18.0881 40.3178 18.0512 40.2701 18.02C40.2013 17.9799 40.1273 17.9496 40.0501 17.93C40.0501 17.93 40.0501 17.93 39.9701 17.93H39.7001C39.6439 17.9203 39.5864 17.9203 39.5301 17.93C39.467 17.9445 39.4064 17.9681 39.3501 18C39.2887 18.02 39.2312 18.0504 39.1801 18.09C39.1801 18.09 39.1801 18.09 39.1201 18.09C39.094 18.1141 39.0705 18.1409 39.0501 18.17C39.0008 18.2219 38.9572 18.2789 38.9201 18.34C38.8835 18.3915 38.8564 18.449 38.8401 18.51C38.8194 18.5447 38.8026 18.5816 38.7901 18.62C38.2427 21.0165 36.9084 23.1605 35.0001 24.71C34.9749 24.7283 34.9544 24.7523 34.9401 24.78H34.8801C34.8565 24.811 34.8364 24.8446 34.8201 24.88C34.7798 24.9377 34.7431 24.9978 34.7101 25.06C34.7057 25.1166 34.7057 25.1734 34.7101 25.23V25.43C34.7046 25.4865 34.7046 25.5435 34.7101 25.6C34.7009 25.6664 34.7009 25.7337 34.7101 25.8C34.7326 25.8585 34.7594 25.9153 34.7901 25.97C34.8064 26.0054 34.8265 26.039 34.8501 26.07C34.8501 26.07 34.8501 26.07 34.9101 26.12V26.2C35.4843 26.7062 35.9474 27.3259 36.2701 28.02C36.3007 28.0858 36.3411 28.1465 36.3901 28.2C36.7501 28.77 38.3401 33.54 37.6501 36.65C37.5387 37.3054 37.232 37.9119 36.7701 38.39C35.1482 37.9653 33.4455 37.9551 31.8187 38.3605C30.1918 38.7659 28.693 39.5738 27.4601 40.71C21.2701 37.56 13.0801 38.71 8.2601 43.57C6.61017 45.2144 5.67863 47.4453 5.66926 49.7747C5.65989 52.1041 6.57345 54.3424 8.2101 56C10.221 58.2712 12.8861 59.8638 15.839 60.5586C18.7918 61.2533 21.8874 61.0163 24.7001 59.88C27.1106 60.6212 29.6182 60.9987 32.1401 61C40.6501 61 49.5401 56.88 57.0101 49.25C57.4209 48.9136 57.7529 48.4913 57.9827 48.0127C58.2124 47.5341 58.3345 47.0109 58.3401 46.48C58.3215 45.7678 58.1575 45.0669 57.8583 44.4204C57.5591 43.7738 57.1309 43.1952 56.6001 42.72V42.72ZM55.6001 47.79C47.0301 56.55 36.6001 60.43 27.3101 58.49C27.9085 58.0953 28.4798 57.661 29.0201 57.19C29.1193 57.1024 29.2 56.9961 29.2578 56.8771C29.3156 56.7581 29.3491 56.6288 29.3566 56.4967C29.364 56.3646 29.3452 56.2324 29.3011 56.1077C29.2571 55.9829 29.1888 55.8682 29.1001 55.77C28.9235 55.5727 28.676 55.4535 28.4116 55.4386C28.1473 55.4236 27.8878 55.514 27.6901 55.69C26.6798 56.5953 25.5322 57.3345 24.2901 57.88H24.2201C21.7641 58.9451 19.0347 59.2083 16.4205 58.6319C13.8063 58.0556 11.4405 56.6691 9.6601 54.67C8.382 53.3895 7.66418 51.6542 7.66418 49.845C7.66418 48.0358 8.382 46.3005 9.6601 45.02C14.6601 39.97 22.6601 40.02 27.5101 43.08L30.0801 45.22C30.2748 45.3806 30.523 45.4617 30.7749 45.447C31.0269 45.4323 31.2639 45.3228 31.4385 45.1406C31.6132 44.9584 31.7124 44.7169 31.7164 44.4645C31.7204 44.2122 31.6289 43.9677 31.4601 43.78C30.8042 43.0328 30.0663 42.3619 29.2601 41.78C30.2799 40.972 31.4814 40.4249 32.7605 40.1861C34.0395 39.9474 35.3575 40.0243 36.6001 40.41L38.8701 41.52C39.0984 41.6325 39.3609 41.6538 39.6043 41.5795C39.8477 41.5052 40.0536 41.3409 40.1801 41.12C40.3047 40.9024 40.343 40.646 40.2874 40.4015C40.2318 40.1571 40.0865 39.9424 39.8801 39.8C39.5183 39.5525 39.1408 39.3287 38.7501 39.13C39.2758 38.3354 39.6174 37.4335 39.7501 36.49C40.0035 33.2734 39.3997 30.0472 38.0001 27.14C37.7297 26.5761 37.3941 26.0458 37.0001 25.56C38.3821 24.2491 39.4607 22.6518 40.1601 20.88L52.0001 34.84L52.1201 34.96C53.4401 36.06 53.5701 37.59 53.7301 39.36C53.7354 40.9729 54.174 42.5547 55.0001 43.94C55.0388 44.0086 55.0896 44.0696 55.1501 44.12C55.4941 44.4084 55.776 44.7636 55.9788 45.1641C56.1817 45.5646 56.3012 46.002 56.3301 46.45C56.3236 46.7109 56.2582 46.967 56.1387 47.1991C56.0192 47.4312 55.8488 47.6332 55.6401 47.79H55.6001Z" fill="#FAB07F"/>
<path d="M39.0001 3.23999C38.9017 3.14916 38.786 3.07901 38.66 3.03372C38.534 2.98843 38.4001 2.96891 38.2664 2.97633C38.1327 2.98374 38.0018 3.01793 37.8816 3.07688C37.7614 3.13583 37.6542 3.21833 37.5664 3.31948C37.4787 3.42064 37.4121 3.53839 37.3707 3.66575C37.3293 3.79311 37.314 3.92748 37.3255 4.0609C37.337 4.19432 37.3752 4.32407 37.4379 4.44244C37.5005 4.56081 37.5862 4.66539 37.6901 4.74999C39.3226 6.15183 40.6325 7.8902 41.5301 9.84586C42.4277 11.8015 42.8916 13.9282 42.8901 16.08C42.8901 16.3452 42.9954 16.5996 43.183 16.7871C43.3705 16.9746 43.6248 17.08 43.8901 17.08C44.1553 17.08 44.4096 16.9746 44.5972 16.7871C44.7847 16.5996 44.8901 16.3452 44.8901 16.08C44.8907 13.6419 44.3648 11.2324 43.3483 9.01631C42.3317 6.80024 40.8485 4.82987 39.0001 3.23999V3.23999Z" fill="#999999"/>
<path d="M21.3002 29.41C18.8275 28.1714 16.7492 26.2677 15.2989 23.9129C13.8486 21.5582 13.0837 18.8456 13.0902 16.08C13.0902 15.8148 12.9848 15.5604 12.7973 15.3729C12.6097 15.1854 12.3554 15.08 12.0902 15.08C11.825 15.08 11.5706 15.1854 11.3831 15.3729C11.1955 15.5604 11.0902 15.8148 11.0902 16.08C11.0802 19.2159 11.9466 22.2922 13.5916 24.962C15.2366 27.6318 17.5947 29.7889 20.4002 31.19C20.5382 31.2649 20.6932 31.3028 20.8502 31.3C21.0741 31.2987 21.2911 31.2222 21.4664 31.0829C21.6417 30.9436 21.7652 30.7495 21.8171 30.5317C21.8689 30.3138 21.8462 30.0849 21.7525 29.8815C21.6587 29.6781 21.4995 29.5121 21.3002 29.41V29.41Z" fill="#999999"/>
<path d="M28.0102 29.16C35.2341 29.16 41.0902 23.3039 41.0902 16.08C41.0902 8.85612 35.2341 3 28.0102 3C20.7863 3 14.9302 8.85612 14.9302 16.08C14.9302 23.3039 20.7863 29.16 28.0102 29.16Z" fill="#4D4D4D"/>
<path d="M28.0101 20.75C30.5893 20.75 32.6801 18.6591 32.6801 16.08C32.6801 13.5008 30.5893 11.41 28.0101 11.41C25.4309 11.41 23.3401 13.5008 23.3401 16.08C23.3401 18.6591 25.4309 20.75 28.0101 20.75Z" fill="#999999"/>
<path d="M56.6001 42.72C56.036 41.6256 55.7445 40.4112 55.7501 39.18C55.5801 37.27 55.3901 35.11 53.5001 33.48L40.8401 18.59C41.4293 15.6061 40.9626 12.5102 39.52 9.83252C38.0774 7.15488 35.7486 5.06214 32.9326 3.91276C30.1167 2.76337 26.9887 2.62887 24.0844 3.53227C21.1801 4.43568 18.6804 6.32079 17.0132 8.86471C15.3461 11.4086 14.6154 14.4531 14.9462 17.4765C15.277 20.5 16.6488 23.3144 18.8266 25.4376C21.0043 27.5608 23.8526 28.8608 26.8835 29.1148C29.9144 29.3688 32.9393 28.5611 35.4401 26.83C35.7708 27.1987 36.047 27.6129 36.2601 28.06C36.2907 28.1258 36.3312 28.1865 36.3801 28.24C36.7401 28.81 38.3301 33.58 37.6401 36.69C37.5287 37.3454 37.222 37.9519 36.7601 38.43C35.1382 38.0052 33.4355 37.9951 31.8087 38.4005C30.1819 38.8059 28.683 39.6138 27.4501 40.75C21.2601 37.6 13.0701 38.75 8.25012 43.61C6.61366 45.254 5.69162 47.4771 5.68413 49.7968C5.67664 52.1164 6.5843 54.3454 8.21012 56C10.221 58.2712 12.8861 59.8637 15.839 60.5585C18.7919 61.2533 21.8875 61.0163 24.7001 59.88C27.1106 60.6212 29.6182 60.9987 32.1401 61C40.6501 61 49.5401 56.88 57.0101 49.25C57.4209 48.9136 57.7529 48.4913 57.9827 48.0127C58.2125 47.5341 58.3345 47.0109 58.3401 46.48C58.3215 45.7678 58.1575 45.0669 57.8583 44.4203C57.5591 43.7738 57.131 43.1952 56.6001 42.72V42.72ZM16.9301 16.08C16.9301 13.8881 17.5802 11.7455 18.7981 9.92323C20.0161 8.10092 21.7471 6.68078 23.7723 5.84245C25.7975 5.00413 28.0258 4.78529 30.1754 5.21363C32.325 5.64196 34.2992 6.69822 35.8484 8.24879C37.3976 9.79936 38.452 11.7746 38.8784 13.9245C39.3048 16.0745 39.084 18.3026 38.2438 20.3271C37.4037 22.3515 35.982 24.0813 34.1586 25.2975C32.3351 26.5138 30.192 27.162 28.0001 27.16C25.0641 27.1547 22.2499 25.9853 20.1748 23.9083C18.0996 21.8312 16.9328 19.016 16.9301 16.08V16.08ZM55.6401 47.79C47.0701 56.55 36.6401 60.43 27.3501 58.49C27.9485 58.0953 28.5198 57.661 29.0601 57.19C29.1593 57.1024 29.2401 56.9961 29.2978 56.8771C29.3556 56.758 29.3891 56.6288 29.3966 56.4967C29.404 56.3646 29.3852 56.2324 29.3412 56.1076C29.2971 55.9829 29.2288 55.8681 29.1401 55.77C28.9635 55.5727 28.716 55.4535 28.4517 55.4385C28.1873 55.4235 27.9279 55.514 27.7301 55.69C26.7198 56.5953 25.5722 57.3345 24.3301 57.88H24.2501C21.7905 58.9521 19.0547 59.219 16.4342 58.6425C13.8137 58.0659 11.4427 56.6755 9.66012 54.67C8.38202 53.3895 7.66419 51.6542 7.66419 49.845C7.66419 48.0358 8.38202 46.3005 9.66012 45.02C14.6601 39.97 22.6601 40.02 27.5101 43.08L30.0801 45.22C30.2748 45.3806 30.523 45.4617 30.7749 45.447C31.0269 45.4322 31.2639 45.3228 31.4386 45.1406C31.6132 44.9584 31.7124 44.7169 31.7164 44.4645C31.7204 44.2122 31.6289 43.9676 31.4601 43.78C30.8043 43.0328 30.0663 42.3619 29.2601 41.78C30.2799 40.972 31.4814 40.4249 32.7605 40.1861C34.0395 39.9474 35.3575 40.0242 36.6001 40.41L38.8701 41.52C39.0984 41.6325 39.361 41.6538 39.6044 41.5795C39.8477 41.5052 40.0537 41.3408 40.1801 41.12C40.3047 40.9024 40.343 40.646 40.2874 40.4015C40.2319 40.157 40.0865 39.9424 39.8801 39.8C39.5183 39.5525 39.1409 39.3287 38.7501 39.13C39.2758 38.3354 39.6174 37.4335 39.7501 36.49C40.0036 33.2734 39.3997 30.0472 38.0001 27.14C37.7335 26.5709 37.3976 26.0368 37.0001 25.55C38.3819 24.2407 39.4634 22.6475 40.1701 20.88L52.0001 34.84L52.1201 34.96C53.4401 36.06 53.5701 37.59 53.7301 39.36C53.7354 40.9729 54.174 42.5547 55.0001 43.94C55.0388 44.0086 55.0896 44.0696 55.1501 44.12C55.4941 44.4084 55.776 44.7636 55.9789 45.1641C56.1817 45.5646 56.3012 46.002 56.3301 46.45C56.3236 46.7109 56.2582 46.967 56.1387 47.1991C56.0192 47.4311 55.8488 47.6332 55.6401 47.79V47.79Z" fill="black"/>
<path d="M28.0001 11.4C27.074 11.398 26.1682 11.6708 25.3973 12.1838C24.6263 12.6969 24.0249 13.4271 23.6692 14.2821C23.3134 15.1371 23.2193 16.0784 23.3988 16.9869C23.5782 17.8953 24.0232 18.7302 24.6773 19.3857C25.3314 20.0412 26.1653 20.4879 27.0734 20.6693C27.9815 20.8507 28.923 20.7586 29.7787 20.4047C30.6344 20.0508 31.3659 19.4509 31.8806 18.6811C32.3953 17.9112 32.6701 17.006 32.6701 16.08C32.6701 14.8405 32.1784 13.6516 31.3029 12.7742C30.4273 11.8969 29.2395 11.4026 28.0001 11.4ZM28.0001 18.75C27.4692 18.752 26.9496 18.5962 26.5074 18.3025C26.0651 18.0088 25.7201 17.5903 25.516 17.1002C25.3119 16.6101 25.258 16.0704 25.3611 15.5496C25.4642 15.0288 25.7196 14.5504 26.095 14.1749C26.4704 13.7995 26.9489 13.5441 27.4697 13.441C27.9905 13.3379 28.5302 13.3918 29.0203 13.5959C29.5104 13.8 29.9288 14.145 30.2226 14.5873C30.5163 15.0295 30.672 15.5491 30.6701 16.08C30.6674 16.7873 30.3853 17.4649 29.8851 17.965C29.385 18.4652 28.7074 18.7473 28.0001 18.75Z" fill="black"/>
<path d="M42.9301 16.08C42.9301 16.3452 43.0354 16.5996 43.223 16.7871C43.4105 16.9746 43.6648 17.08 43.9301 17.08C44.1953 17.08 44.4496 16.9746 44.6372 16.7871C44.8247 16.5996 44.9301 16.3452 44.9301 16.08C44.9258 13.6388 44.3936 11.2274 43.3701 9.0111C42.3465 6.79483 40.8558 4.82613 39.0001 3.23999C38.9017 3.14916 38.786 3.07901 38.66 3.03372C38.534 2.98843 38.4001 2.96891 38.2664 2.97633C38.1327 2.98374 38.0018 3.01793 37.8816 3.07688C37.7614 3.13583 37.6542 3.21833 37.5664 3.31948C37.4787 3.42064 37.4121 3.53839 37.3707 3.66575C37.3293 3.79311 37.314 3.92748 37.3255 4.0609C37.337 4.19432 37.3752 4.32407 37.4379 4.44244C37.5005 4.56081 37.5862 4.66539 37.6901 4.74999C39.3299 6.14808 40.6474 7.88478 41.5519 9.84064C42.4565 11.7965 42.9267 13.9251 42.9301 16.08V16.08Z" fill="black"/>
<path d="M20.4002 31.19C20.5382 31.2649 20.6932 31.3028 20.8502 31.3C21.0741 31.2987 21.2911 31.2222 21.4664 31.0829C21.6417 30.9436 21.7652 30.7495 21.8171 30.5317C21.8689 30.3138 21.8462 30.0849 21.7525 29.8815C21.6587 29.6781 21.4995 29.5121 21.3002 29.41C18.8275 28.1714 16.7492 26.2677 15.2989 23.9129C13.8486 21.5582 13.0837 18.8456 13.0902 16.08C13.0902 15.8148 12.9848 15.5604 12.7973 15.3729C12.6097 15.1854 12.3554 15.08 12.0902 15.08C11.825 15.08 11.5706 15.1854 11.3831 15.3729C11.1955 15.5604 11.0902 15.8148 11.0902 16.08C11.0802 19.2159 11.9466 22.2922 13.5916 24.962C15.2366 27.6318 17.5947 29.7889 20.4002 31.19V31.19Z" fill="black"/>
</svg>
